<?xml version="1.0" encoding="UTF-8"?>
<!DOCTYPE svg PUBLIC "-//W3C//DTD SVG 1.1//EN" "http://www.w3.org/Graphics/SVG/1.1/DTD/svg11.dtd">
<svg xmlns="http://www.w3.org/2000/svg" version="1.1" width="496px" height="503px" style="shape-rendering:geometricPrecision; text-rendering:geometricPrecision; image-rendering:optimizeQuality; fill-rule:evenodd; clip-rule:evenodd" xmlns:xlink="http://www.w3.org/1999/xlink">
<g><path style="opacity:0.998" fill="#a9a8a7" d="M 256.5,128.5 C 255.167,128.5 253.833,128.5 252.5,128.5C 250.525,138.117 246.192,146.451 239.5,153.5C 238.662,153.158 238.328,152.492 238.5,151.5C 238.557,150.391 238.89,149.391 239.5,148.5C 243.198,141.749 244.198,134.749 242.5,127.5C 242.207,122.526 240.374,117.859 237,113.5C 228.516,104.07 219.516,95.0698 210,86.5C 204.811,80.6216 201.645,73.7883 200.5,66C 202.301,55.046 207.301,45.8794 215.5,38.5C 215.833,38.6667 216.167,38.8333 216.5,39C 209.495,46.669 206.995,55.5023 209,65.5C 210.914,70.3353 213.581,74.6686 217,78.5C 227.243,86.7376 236.909,95.7376 246,105.5C 251.098,111.961 253.265,119.294 252.5,127.5C 254.099,127.232 255.432,127.566 256.5,128.5 Z"/></g>
<g><path style="opacity:0.09" fill="#b6b8b6" d="M 191.5,59.5 C 192.833,60.1667 192.833,60.1667 191.5,59.5 Z"/></g>
<g><path style="opacity:0.685" fill="#adadac" d="M 199.5,89.5 C 202.603,91.4233 205.603,93.59 208.5,96C 205.478,96.1637 202.811,95.1637 200.5,93C 199.663,91.9887 199.33,90.8221 199.5,89.5 Z"/></g>
<g><path style="opacity:0.995" fill="#a9a4a4" d="M 267.5,129.5 C 266.539,131.265 266.205,133.265 266.5,135.5C 265.193,139.081 263.859,142.747 262.5,146.5C 259.557,149.782 256.557,153.115 253.5,156.5C 251.629,156.859 250.129,157.859 249,159.5C 248.601,159.272 248.435,158.938 248.5,158.5C 255.802,149.886 259.802,139.886 260.5,128.5C 260.817,121.26 259.984,114.26 258,107.5C 263.398,113.859 266.565,121.193 267.5,129.5 Z"/></g>
<g><path style="opacity:1" fill="#9e282d" d="M 350.5,122.5 C 351.051,125.807 351.384,129.14 351.5,132.5C 339.697,132.03 328.03,132.03 316.5,132.5C 315.708,131.3 315.708,129.967 316.5,128.5C 319.789,119.544 326.122,114.21 335.5,112.5C 342.45,113.127 347.45,116.46 350.5,122.5 Z"/></g>
<g><path style="opacity:0.584" fill="#bb656d" d="M 350.5,122.5 C 351.926,124.679 352.592,127.179 352.5,130C 352.492,131.707 352.158,133.207 351.5,134.5C 351.5,133.833 351.5,133.167 351.5,132.5C 351.384,129.14 351.051,125.807 350.5,122.5 Z"/></g>
<g><path style="opacity:1" fill="#b35156" d="M 208.5,128.5 C 203.731,129.889 198.731,130.556 193.5,130.5C 198.269,129.111 203.269,128.444 208.5,128.5 Z"/></g>
<g><path style="opacity:1" fill="#ad5f66" d="M 267.5,129.5 C 269.415,129.216 271.081,129.549 272.5,130.5C 270.833,130.5 269.167,130.5 267.5,130.5C 267.784,132.415 267.451,134.081 266.5,135.5C 266.205,133.265 266.539,131.265 267.5,129.5 Z"/></g>
<g><path style="opacity:1" fill="#a72e35" d="M 242.5,127.5 C 244.198,134.749 243.198,141.749 239.5,148.5C 238.1,147.9 237.1,146.9 236.5,145.5C 233.368,142.89 229.701,141.223 225.5,140.5C 222.305,138.97 218.805,138.304 215,138.5C 212.31,138.503 209.81,138.836 207.5,139.5C 203.737,139.857 200.07,140.69 196.5,142C 194.676,142.66 193.343,143.827 192.5,145.5C 191.288,146.23 190.288,147.23 189.5,148.5C 188.167,147.833 186.833,147.167 185.5,146.5C 183.506,148.917 181.673,148.917 180,146.5C 179.309,148.891 178.309,148.891 177,146.5C 175.151,147.561 173.151,148.227 171,148.5C 168.003,147.828 165.17,147.828 162.5,148.5C 161.522,148.023 160.689,147.357 160,146.5C 159.667,147.167 159.333,147.833 159,148.5C 154.44,147.607 149.94,147.607 145.5,148.5C 144.537,148.03 144.537,147.363 145.5,146.5C 149.327,143.366 153.66,140.866 158.5,139C 169.84,134.748 181.507,131.915 193.5,130.5C 198.731,130.556 203.731,129.889 208.5,128.5C 214.368,127.899 220.201,127.232 226,126.5C 231.289,127.142 236.789,127.475 242.5,127.5 Z"/></g>
<g><path style="opacity:1" fill="#b8545c" d="M 207.5,139.5 C 209.81,138.836 212.31,138.503 215,138.5C 218.805,138.304 222.305,138.97 225.5,140.5C 219.536,139.693 213.536,139.36 207.5,139.5 Z"/></g>
<g><path style="opacity:1" fill="#aa3137" d="M 316.5,128.5 C 315.708,129.967 315.708,131.3 316.5,132.5C 328.03,132.03 339.697,132.03 351.5,132.5C 351.5,133.167 351.5,133.833 351.5,134.5C 349.511,139.809 346.511,144.476 342.5,148.5C 341.25,148.423 340.417,147.756 340,146.5C 339.333,147.167 338.667,147.833 338,148.5C 333.686,147.843 329.519,147.843 325.5,148.5C 324.522,148.023 323.689,147.357 323,146.5C 322.309,148.891 321.309,148.891 320,146.5C 318.806,147.43 317.473,148.097 316,148.5C 308.888,148.524 301.388,148.19 293.5,147.5C 283.194,145.501 272.86,145.168 262.5,146.5C 263.859,142.747 265.193,139.081 266.5,135.5C 267.451,134.081 267.784,132.415 267.5,130.5C 269.167,130.5 270.833,130.5 272.5,130.5C 282.467,131.793 292.301,133.793 302,136.5C 308.122,136.025 312.956,133.358 316.5,128.5 Z"/></g>
</svg> 