<?xml version="1.0" encoding="UTF-8"?>
<!DOCTYPE svg PUBLIC "-//W3C//DTD SVG 1.1//EN" "http://www.w3.org/Graphics/SVG/1.1/DTD/svg11.dtd">
<svg xmlns="http://www.w3.org/2000/svg" version="1.1" width="496px" height="503px" style="shape-rendering:geometricPrecision; text-rendering:geometricPrecision; image-rendering:optimizeQuality; fill-rule:evenodd; clip-rule:evenodd" xmlns:xlink="http://www.w3.org/1999/xlink">
<g><path style="opacity:0.998" fill="#a9a8a7" d="M 256.5,128.5 C 255.167,128.5 253.833,128.5 252.5,128.5C 250.525,138.117 246.192,146.451 239.5,153.5C 238.662,153.158 238.328,152.492 238.5,151.5C 238.557,150.391 238.89,149.391 239.5,148.5C 243.198,141.749 244.198,134.749 242.5,127.5C 242.207,122.526 240.374,117.859 237,113.5C 228.516,104.07 219.516,95.0698 210,86.5C 204.811,80.6216 201.645,73.7883 200.5,66C 202.301,55.046 207.301,45.8794 215.5,38.5C 215.833,38.6667 216.167,38.8333 216.5,39C 209.495,46.669 206.995,55.5023 209,65.5C 210.914,70.3353 213.581,74.6686 217,78.5C 227.243,86.7376 236.909,95.7376 246,105.5C 251.098,111.961 253.265,119.294 252.5,127.5C 254.099,127.232 255.432,127.566 256.5,128.5 Z"/></g>
<g><path style="opacity:0.09" fill="#b6b8b6" d="M 191.5,59.5 C 192.833,60.1667 192.833,60.1667 191.5,59.5 Z"/></g>
<g><path style="opacity:0.685" fill="#adadac" d="M 199.5,89.5 C 202.603,91.4233 205.603,93.59 208.5,96C 205.478,96.1637 202.811,95.1637 200.5,93C 199.663,91.9887 199.33,90.8221 199.5,89.5 Z"/></g>
<g><path style="opacity:0.995" fill="#a9a4a4" d="M 267.5,129.5 C 266.539,131.265 266.205,133.265 266.5,135.5C 265.193,139.081 263.859,142.747 262.5,146.5C 259.557,149.782 256.557,153.115 253.5,156.5C 251.629,156.859 250.129,157.859 249,159.5C 248.601,159.272 248.435,158.938 248.5,158.5C 255.802,149.886 259.802,139.886 260.5,128.5C 260.817,121.26 259.984,114.26 258,107.5C 263.398,113.859 266.565,121.193 267.5,129.5 Z"/></g>
<g><path style="opacity:1" fill="#9e282d" d="M 350.5,122.5 C 351.051,125.807 351.384,129.14 351.5,132.5C 339.697,132.03 328.03,132.03 316.5,132.5C 315.708,131.3 315.708,129.967 316.5,128.5C 319.789,119.544 326.122,114.21 335.5,112.5C 342.45,113.127 347.45,116.46 350.5,122.5 Z"/></g>
<g><path style="opacity:0.584" fill="#bb656d" d="M 350.5,122.5 C 351.926,124.679 352.592,127.179 352.5,130C 352.492,131.707 352.158,133.207 351.5,134.5C 351.5,133.833 351.5,133.167 351.5,132.5C 351.384,129.14 351.051,125.807 350.5,122.5 Z"/></g>
<g><path style="opacity:1" fill="#b35156" d="M 208.5,128.5 C 203.731,129.889 198.731,130.556 193.5,130.5C 198.269,129.111 203.269,128.444 208.5,128.5 Z"/></g>
<g><path style="opacity:1" fill="#ad5f66" d="M 267.5,129.5 C 269.415,129.216 271.081,129.549 272.5,130.5C 270.833,130.5 269.167,130.5 267.5,130.5C 267.784,132.415 267.451,134.081 266.5,135.5C 266.205,133.265 266.539,131.265 267.5,129.5 Z"/></g>
<g><path style="opacity:1" fill="#a72e35" d="M 242.5,127.5 C 244.198,134.749 243.198,141.749 239.5,148.5C 238.1,147.9 237.1,146.9 236.5,145.5C 233.368,142.89 229.701,141.223 225.5,140.5C 222.305,138.97 218.805,138.304 215,138.5C 212.31,138.503 209.81,138.836 207.5,139.5C 203.737,139.857 200.07,140.69 196.5,142C 194.676,142.66 193.343,143.827 192.5,145.5C 191.288,146.23 190.288,147.23 189.5,148.5C 188.167,147.833 186.833,147.167 185.5,146.5C 183.506,148.917 181.673,148.917 180,146.5C 179.309,148.891 178.309,148.891 177,146.5C 175.151,147.561 173.151,148.227 171,148.5C 168.003,147.828 165.17,147.828 162.5,148.5C 161.522,148.023 160.689,147.357 160,146.5C 159.667,147.167 159.333,147.833 159,148.5C 154.44,147.607 149.94,147.607 145.5,148.5C 144.537,148.03 144.537,147.363 145.5,146.5C 149.327,143.366 153.66,140.866 158.5,139C 169.84,134.748 181.507,131.915 193.5,130.5C 198.731,130.556 203.731,129.889 208.5,128.5C 214.368,127.899 220.201,127.232 226,126.5C 231.289,127.142 236.789,127.475 242.5,127.5 Z"/></g>
<g><path style="opacity:1" fill="#b8545c" d="M 207.5,139.5 C 209.81,138.836 212.31,138.503 215,138.5C 218.805,138.304 222.305,138.97 225.5,140.5C 219.536,139.693 213.536,139.36 207.5,139.5 Z"/></g>
<g><path style="opacity:1" fill="#aa3137" d="M 316.5,128.5 C 315.708,129.967 315.708,131.3 316.5,132.5C 328.03,132.03 339.697,132.03 351.5,132.5C 351.5,133.167 351.5,133.833 351.5,134.5C 349.511,139.809 346.511,144.476 342.5,148.5C 341.25,148.423 340.417,147.756 340,146.5C 339.333,147.167 338.667,147.833 338,148.5C 333.686,147.843 329.519,147.843 325.5,148.5C 324.522,148.023 323.689,147.357 323,146.5C 322.309,148.891 321.309,148.891 320,146.5C 318.806,147.43 317.473,148.097 316,148.5C 308.888,148.524 301.388,148.19 293.5,147.5C 283.194,145.501 272.86,145.168 262.5,146.5C 263.859,142.747 265.193,139.081 266.5,135.5C 267.451,134.081 267.784,132.415 267.5,130.5C 269.167,130.5 270.833,130.5 272.5,130.5C 282.467,131.793 292.301,133.793 302,136.5C 308.122,136.025 312.956,133.358 316.5,128.5 Z"/></g>
<g><path style="opacity:1" fill="#fbf6f7" d="M 207.5,139.5 C 213.536,139.36 219.536,139.693 225.5,140.5C 229.701,141.223 233.368,142.89 236.5,145.5C 236.703,147.39 236.037,148.89 234.5,150C 224.868,154.12 214.868,155.287 204.5,153.5C 202.485,152.076 200.152,151.41 197.5,151.5C 193.643,151.31 191.976,149.31 192.5,145.5C 193.343,143.827 194.676,142.66 196.5,142C 200.07,140.69 203.737,139.857 207.5,139.5 Z"/></g>
<g><path style="opacity:1" fill="#b63940" d="M 192.5,145.5 C 191.976,149.31 193.643,151.31 197.5,151.5C 199.515,152.924 201.848,153.59 204.5,153.5C 214.868,155.287 224.868,154.12 234.5,150C 236.037,148.89 236.703,147.39 236.5,145.5C 237.1,146.9 238.1,147.9 239.5,148.5C 238.89,149.391 238.557,150.391 238.5,151.5C 236.981,154.021 235.314,156.521 233.5,159C 230.635,159.183 227.969,159.683 225.5,160.5C 223.973,160.427 222.973,161.094 222.5,162.5C 219.223,162.216 216.057,162.549 213,163.5C 210.778,161.722 208.612,161.555 206.5,163C 204.19,163.497 201.857,163.663 199.5,163.5C 198.167,163.5 196.833,163.5 195.5,163.5C 186.975,162.241 178.308,162.241 169.5,163.5C 166.333,163.6 163.333,162.933 160.5,161.5C 152.285,162.243 144.452,162.243 137,161.5C 133.473,164.621 131.973,163.955 132.5,159.5C 135.167,153.5 139.5,149.167 145.5,146.5C 144.537,147.363 144.537,148.03 145.5,148.5C 149.94,147.607 154.44,147.607 159,148.5C 159.333,147.833 159.667,147.167 160,146.5C 160.689,147.357 161.522,148.023 162.5,148.5C 165.17,147.828 168.003,147.828 171,148.5C 173.151,148.227 175.151,147.561 177,146.5C 178.309,148.891 179.309,148.891 180,146.5C 181.673,148.917 183.506,148.917 185.5,146.5C 186.833,147.167 188.167,147.833 189.5,148.5C 190.288,147.23 191.288,146.23 192.5,145.5 Z"/></g>
<g><path style="opacity:1" fill="#fcf9f9" d="M 293.5,147.5 C 294.833,148.933 296.333,150.267 298,151.5C 298.49,152.793 298.657,154.127 298.5,155.5C 291.471,160.216 283.637,162.216 275,161.5C 267.158,162.301 259.992,160.635 253.5,156.5C 256.557,153.115 259.557,149.782 262.5,146.5C 272.86,145.168 283.194,145.501 293.5,147.5 Z"/></g>
<g><path style="opacity:1" fill="#b4373e" d="M 342.5,148.5 C 340.102,151.571 338.102,154.905 336.5,158.5C 325.05,157.716 313.217,157.716 301,158.5C 299.251,158.252 298.418,157.252 298.5,155.5C 298.657,154.127 298.49,152.793 298,151.5C 296.333,150.267 294.833,148.933 293.5,147.5C 301.388,148.19 308.888,148.524 316,148.5C 317.473,148.097 318.806,147.43 320,146.5C 321.309,148.891 322.309,148.891 323,146.5C 323.689,147.357 324.522,148.023 325.5,148.5C 329.519,147.843 333.686,147.843 338,148.5C 338.667,147.833 339.333,147.167 340,146.5C 340.417,147.756 341.25,148.423 342.5,148.5 Z"/></g>
<g><path style="opacity:1" fill="#af363d" d="M 256.5,128.5 C 257.833,128.5 259.167,128.5 260.5,128.5C 259.802,139.886 255.802,149.886 248.5,158.5C 247.213,159.768 246.213,159.435 245.5,157.5C 244.5,158.833 243.5,158.833 242.5,157.5C 240.55,158.372 238.55,159.039 236.5,159.5C 235.957,159.44 235.624,159.107 235.5,158.5C 236.857,156.814 238.19,155.148 239.5,153.5C 246.192,146.451 250.525,138.117 252.5,128.5C 253.833,128.5 255.167,128.5 256.5,128.5 Z"/></g>
<g><path style="opacity:1" fill="#e2b2b6" d="M 197.5,151.5 C 200.152,151.41 202.485,152.076 204.5,153.5C 201.848,153.59 199.515,152.924 197.5,151.5 Z"/></g>
<g><path style="opacity:1" fill="#b98e91" d="M 238.5,151.5 C 238.328,152.492 238.662,153.158 239.5,153.5C 238.19,155.148 236.857,156.814 235.5,158.5C 235.624,159.107 235.957,159.44 236.5,159.5C 236.5,159.833 236.5,160.167 236.5,160.5C 232.833,160.5 229.167,160.5 225.5,160.5C 227.969,159.683 230.635,159.183 233.5,159C 235.314,156.521 236.981,154.021 238.5,151.5 Z"/></g>
<g><path style="opacity:1" fill="#f9eeef" d="M 225.5,160.5 C 229.167,160.5 232.833,160.5 236.5,160.5C 241.79,162.109 241.79,163.942 236.5,166C 232.833,166.667 229.167,166.667 225.5,166C 223.574,165.578 222.574,164.411 222.5,162.5C 222.973,161.094 223.973,160.427 225.5,160.5 Z"/></g>
<g><path style="opacity:1" fill="#ebc7ca" d="M 195.5,163.5 C 186.8,163.289 178.133,163.623 169.5,164.5C 169.5,164.167 169.5,163.833 169.5,163.5C 178.308,162.241 186.975,162.241 195.5,163.5 Z"/></g>
<g><path style="opacity:1" fill="#fdfbfb" d="M 195.5,163.5 C 196.833,163.5 198.167,163.5 199.5,163.5C 203.429,164.87 207.429,166.37 211.5,168C 212.71,169.039 213.71,170.206 214.5,171.5C 214.919,174.325 213.919,176.491 211.5,178C 208.842,179.478 206.175,180.645 203.5,181.5C 194.907,183.006 186.241,183.673 177.5,183.5C 171.604,182.822 165.938,181.322 160.5,179C 157.603,177.285 156.269,174.785 156.5,171.5C 159.505,166.829 163.838,164.496 169.5,164.5C 178.133,163.623 186.8,163.289 195.5,163.5 Z"/></g>
<g><path style="opacity:1" fill="#c1434a" d="M 132.5,159.5 C 131.973,163.955 133.473,164.621 137,161.5C 144.452,162.243 152.285,162.243 160.5,161.5C 163.333,162.933 166.333,163.6 169.5,163.5C 169.5,163.833 169.5,164.167 169.5,164.5C 163.838,164.496 159.505,166.829 156.5,171.5C 155.942,173.789 154.776,175.789 153,177.5C 149.046,177.692 145.046,177.359 141,176.5C 138.705,176.547 136.871,177.213 135.5,178.5C 135.167,178.5 134.833,178.5 134.5,178.5C 130.286,172.467 129.62,166.134 132.5,159.5 Z"/></g>
<g><path style="opacity:1" fill="#bf4048" d="M 298.5,155.5 C 298.418,157.252 299.251,158.252 301,158.5C 313.217,157.716 325.05,157.716 336.5,158.5C 335.94,163.305 335.273,167.971 334.5,172.5C 334.315,170.804 333.481,169.471 332,168.5C 311.841,168.818 291.507,168.818 271,168.5C 264.141,169.973 257.307,170.973 250.5,171.5C 247.813,171.336 245.146,171.503 242.5,172C 241.584,172.278 240.918,172.778 240.5,173.5C 236.122,173.689 232.122,175.022 228.5,177.5C 225.065,176.219 221.565,176.219 218,177.5C 216.224,175.789 215.058,173.789 214.5,171.5C 213.71,170.206 212.71,169.039 211.5,168C 207.429,166.37 203.429,164.87 199.5,163.5C 201.857,163.663 204.19,163.497 206.5,163C 208.612,161.555 210.778,161.722 213,163.5C 216.057,162.549 219.223,162.216 222.5,162.5C 222.574,164.411 223.574,165.578 225.5,166C 229.167,166.667 232.833,166.667 236.5,166C 241.79,163.942 241.79,162.109 236.5,160.5C 236.5,160.167 236.5,159.833 236.5,159.5C 238.55,159.039 240.55,158.372 242.5,157.5C 243.5,158.833 244.5,158.833 245.5,157.5C 246.213,159.435 247.213,159.768 248.5,158.5C 248.435,158.938 248.601,159.272 249,159.5C 250.129,157.859 251.629,156.859 253.5,156.5C 259.992,160.635 267.158,162.301 275,161.5C 283.637,162.216 291.471,160.216 298.5,155.5 Z"/></g>
<g><path style="opacity:1" fill="#f4dee0" d="M 250.5,171.5 C 256.026,171.179 261.36,171.512 266.5,172.5C 257.8,172.289 249.133,172.623 240.5,173.5C 240.918,172.778 241.584,172.278 242.5,172C 245.146,171.503 247.813,171.336 250.5,171.5 Z"/></g>
<g><path style="opacity:1" fill="#fefbfb" d="M 266.5,172.5 C 272.87,172.54 278.87,174.04 284.5,177C 286.192,178.307 287.525,179.807 288.5,181.5C 288.919,184.325 287.919,186.491 285.5,188C 279.743,191.692 273.409,193.692 266.5,194C 259.842,194.5 253.175,194.666 246.5,194.5C 244.485,193.076 242.152,192.41 239.5,192.5C 236.833,191.833 234.167,191.167 231.5,190.5C 228.401,188.725 226.401,186.058 225.5,182.5C 226.092,180.577 227.092,178.911 228.5,177.5C 232.122,175.022 236.122,173.689 240.5,173.5C 249.133,172.623 257.8,172.289 266.5,172.5 Z"/></g>
<g><path style="opacity:1" fill="#c8484f" d="M 334.5,172.5 C 333.173,177.551 332.173,182.551 331.5,187.5C 331.664,184.813 331.497,182.146 331,179.5C 328.564,182.447 325.731,184.78 322.5,186.5C 321.828,185.733 320.995,185.066 320,184.5C 310.116,185.32 299.949,185.654 289.5,185.5C 289.768,183.901 289.434,182.568 288.5,181.5C 287.525,179.807 286.192,178.307 284.5,177C 278.87,174.04 272.87,172.54 266.5,172.5C 261.36,171.512 256.026,171.179 250.5,171.5C 257.307,170.973 264.141,169.973 271,168.5C 291.507,168.818 311.841,168.818 332,168.5C 333.481,169.471 334.315,170.804 334.5,172.5 Z"/></g>
<g><path style="opacity:1" fill="#cf4d54" d="M 156.5,171.5 C 156.269,174.785 157.603,177.285 160.5,179C 165.938,181.322 171.604,182.822 177.5,183.5C 182.65,184.651 187.984,184.817 193.5,184C 197.133,183.851 200.466,183.018 203.5,181.5C 206.175,180.645 208.842,179.478 211.5,178C 213.919,176.491 214.919,174.325 214.5,171.5C 215.058,173.789 216.224,175.789 218,177.5C 221.565,176.219 225.065,176.219 228.5,177.5C 227.092,178.911 226.092,180.577 225.5,182.5C 226.401,186.058 228.401,188.725 231.5,190.5C 231.631,191.239 231.464,191.906 231,192.5C 229.667,191.833 228.333,191.167 227,190.5C 224,191.167 221,191.833 218,192.5C 209.386,191.753 200.886,191.753 192.5,192.5C 187.655,190.552 182.655,190.552 177.5,192.5C 173.583,191.929 169.75,191.596 166,191.5C 164.833,191.667 163.667,191.833 162.5,192C 162.833,192.333 163.167,192.667 163.5,193C 161.061,193.533 160.395,194.7 161.5,196.5C 150.851,193.156 142.184,187.156 135.5,178.5C 136.871,177.213 138.705,176.547 141,176.5C 145.046,177.359 149.046,177.692 153,177.5C 154.776,175.789 155.942,173.789 156.5,171.5 Z"/></g>
<g><path style="opacity:0.98" fill="#b45b60" d="M 134.5,184.5 C 136.238,189.217 136.904,194.217 136.5,199.5C 135.407,194.694 134.741,189.694 134.5,184.5 Z"/></g>
<g><path style="opacity:1" fill="#fbf6f6" d="M 326.5,205.5 C 325.515,209.634 325.182,213.968 325.5,218.5C 323.447,218.402 321.78,219.069 320.5,220.5C 318.046,221.227 315.713,222.227 313.5,223.5C 313.171,217.794 313.505,212.128 314.5,206.5C 315.522,206.145 316.189,205.478 316.5,204.5C 319.356,202.907 322.356,201.573 325.5,200.5C 326.452,202.045 326.785,203.712 326.5,205.5 Z"/></g>
<g><path style="opacity:1" fill="#fbf5f6" d="M 144.5,202.5 C 148.048,204.441 151.714,206.107 155.5,207.5C 155.823,213.69 155.49,219.69 154.5,225.5C 150.551,224.775 147.051,223.109 144,220.5C 143.173,216.541 142.673,212.541 142.5,208.5C 142.539,206.048 143.206,204.048 144.5,202.5 Z"/></g>
<g><path style="opacity:1" fill="#a1282e" d="M 134.5,178.5 C 134.833,178.5 135.167,178.5 135.5,178.5C 142.184,187.156 150.851,193.156 161.5,196.5C 167.726,199.621 174.393,201.621 181.5,202.5C 197.156,207.217 213.323,209.217 230,208.5C 248.548,208.643 266.715,206.643 284.5,202.5C 293.711,200.374 302.711,197.541 311.5,194C 315.345,191.637 319.011,189.137 322.5,186.5C 325.731,184.78 328.564,182.447 331,179.5C 331.497,182.146 331.664,184.813 331.5,187.5C 331.294,194.564 330.627,201.564 329.5,208.5C 328.629,212.021 327.795,215.688 327,219.5C 326.501,214.845 326.334,210.179 326.5,205.5C 326.785,203.712 326.452,202.045 325.5,200.5C 322.356,201.573 319.356,202.907 316.5,204.5C 314.847,204.66 313.514,205.326 312.5,206.5C 311.673,211.651 311.173,216.984 311,222.5C 310.333,221.167 309.667,219.833 309,218.5C 308.333,221.167 307.667,221.167 307,218.5C 306.333,219.833 305.667,221.167 305,222.5C 304.501,218.179 304.334,213.846 304.5,209.5C 303.209,209.263 302.209,209.596 301.5,210.5C 300.209,210.263 299.209,210.596 298.5,211.5C 298.167,211.5 297.833,211.5 297.5,211.5C 293.605,212.462 289.939,213.796 286.5,215.5C 285.834,220.349 285.167,225.349 284.5,230.5C 283.575,229.359 282.741,229.359 282,230.5C 281.333,229.833 280.667,229.167 280,228.5C 278.926,231.5 278.093,234.5 277.5,237.5C 277.5,230.833 277.5,224.167 277.5,217.5C 275.901,217.232 274.568,217.566 273.5,218.5C 267.638,219.101 261.971,220.101 256.5,221.5C 255.51,227.645 255.177,233.978 255.5,240.5C 254.839,239.282 254.172,237.949 253.5,236.5C 252.808,237.025 252.308,237.692 252,238.5C 249.152,235.906 247.152,236.573 246,240.5C 245.828,234.319 245.328,228.319 244.5,222.5C 244.167,222.5 243.833,222.5 243.5,222.5C 237.5,222.5 231.5,222.5 225.5,222.5C 224.513,227.305 224.179,232.305 224.5,237.5C 221.384,237.289 218.55,236.955 216,236.5C 216.617,238.095 216.284,239.428 215,240.5C 214.828,233.987 214.328,227.653 213.5,221.5C 207.479,220.997 201.479,220.331 195.5,219.5C 194.791,218.596 193.791,218.263 192.5,218.5C 191.672,224.653 191.172,230.987 191,237.5C 191.048,233.479 190.048,229.813 188,226.5C 184.841,227.745 185.007,228.912 188.5,230C 187.552,230.483 186.552,230.649 185.5,230.5C 184.656,227.73 183.989,223.063 183.5,216.5C 183.167,216.5 182.833,216.5 182.5,216.5C 182.158,215.662 181.492,215.328 180.5,215.5C 178.485,214.076 176.152,213.41 173.5,213.5C 171.883,212.962 170.216,212.629 168.5,212.5C 167.791,211.596 166.791,211.263 165.5,211.5C 164.523,214.287 164.19,217.287 164.5,220.5C 162.876,220.64 161.71,219.973 161,218.5C 159.615,219.551 158.615,220.884 158,222.5C 157.826,217.316 157.326,212.316 156.5,207.5C 156.167,207.5 155.833,207.5 155.5,207.5C 151.714,206.107 148.048,204.441 144.5,202.5C 143.686,200.727 142.352,200.227 140.5,201C 139.253,203.016 137.919,204.849 136.5,206.5C 136.5,204.167 136.5,201.833 136.5,199.5C 136.904,194.217 136.238,189.217 134.5,184.5C 134.5,182.5 134.5,180.5 134.5,178.5 Z"/></g>
<g><path style="opacity:1" fill="#dc575e" d="M 284.5,202.5 C 266.715,206.643 248.548,208.643 230,208.5C 213.323,209.217 197.156,207.217 181.5,202.5C 181.082,201.778 180.416,201.278 179.5,201C 181.906,200.694 184.073,199.861 186,198.5C 188.511,199.258 191.178,199.591 194,199.5C 197,196.833 200,196.833 203,199.5C 211.525,198.642 220.192,198.642 229,199.5C 230.667,198.833 232.333,198.167 234,197.5C 237.466,198.202 240.966,198.869 244.5,199.5C 256.09,198.544 267.757,198.21 279.5,198.5C 282.958,197.774 284.625,199.107 284.5,202.5 Z"/></g>
<g><path style="opacity:1" fill="#d6535a" d="M 288.5,181.5 C 289.434,182.568 289.768,183.901 289.5,185.5C 299.949,185.654 310.116,185.32 320,184.5C 320.995,185.066 321.828,185.733 322.5,186.5C 319.011,189.137 315.345,191.637 311.5,194C 302.711,197.541 293.711,200.374 284.5,202.5C 284.625,199.107 282.958,197.774 279.5,198.5C 267.757,198.21 256.09,198.544 244.5,199.5C 240.966,198.869 237.466,198.202 234,197.5C 232.333,198.167 230.667,198.833 229,199.5C 220.192,198.642 211.525,198.642 203,199.5C 200,196.833 197,196.833 194,199.5C 191.178,199.591 188.511,199.258 186,198.5C 184.073,199.861 181.906,200.694 179.5,201C 180.416,201.278 181.082,201.778 181.5,202.5C 174.393,201.621 167.726,199.621 161.5,196.5C 160.395,194.7 161.061,193.533 163.5,193C 163.167,192.667 162.833,192.333 162.5,192C 163.667,191.833 164.833,191.667 166,191.5C 169.75,191.596 173.583,191.929 177.5,192.5C 182.655,190.552 187.655,190.552 192.5,192.5C 200.886,191.753 209.386,191.753 218,192.5C 221,191.833 224,191.167 227,190.5C 228.333,191.167 229.667,191.833 231,192.5C 231.464,191.906 231.631,191.239 231.5,190.5C 234.167,191.167 236.833,191.833 239.5,192.5C 241.515,193.924 243.848,194.59 246.5,194.5C 253.175,194.666 259.842,194.5 266.5,194C 273.409,193.692 279.743,191.692 285.5,188C 287.919,186.491 288.919,184.325 288.5,181.5 Z"/></g>
<g><path style="opacity:1" fill="#e69a9e" d="M 239.5,192.5 C 242.152,192.41 244.485,193.076 246.5,194.5C 243.848,194.59 241.515,193.924 239.5,192.5 Z"/></g>
<g><path style="opacity:1" fill="#d77278" d="M 203.5,181.5 C 200.466,183.018 197.133,183.851 193.5,184C 187.984,184.817 182.65,184.651 177.5,183.5C 186.241,183.673 194.907,183.006 203.5,181.5 Z"/></g>
<g><path style="opacity:1" fill="#d0959c" d="M 316.5,204.5 C 316.189,205.478 315.522,206.145 314.5,206.5C 313.505,212.128 313.171,217.794 313.5,223.5C 312.511,218.025 312.178,212.358 312.5,206.5C 313.514,205.326 314.847,204.66 316.5,204.5 Z"/></g>
<g><path style="opacity:1" fill="#b55358" d="M 326.5,205.5 C 326.334,210.179 326.501,214.845 327,219.5C 327.795,215.688 328.629,212.021 329.5,208.5C 329.348,214.699 328.682,220.699 327.5,226.5C 327.662,224.473 327.495,222.473 327,220.5C 325.044,220.784 322.877,220.784 320.5,220.5C 321.78,219.069 323.447,218.402 325.5,218.5C 325.182,213.968 325.515,209.634 326.5,205.5 Z"/></g>
<g><path style="opacity:1" fill="#ac3239" d="M 144.5,202.5 C 143.206,204.048 142.539,206.048 142.5,208.5C 142.673,212.541 143.173,216.541 144,220.5C 147.051,223.109 150.551,224.775 154.5,225.5C 154.56,226.043 154.893,226.376 155.5,226.5C 156.496,220.202 156.83,213.868 156.5,207.5C 157.326,212.316 157.826,217.316 158,222.5C 158.615,220.884 159.615,219.551 161,218.5C 161.71,219.973 162.876,220.64 164.5,220.5C 164.19,217.287 164.523,214.287 165.5,211.5C 165.177,218.022 165.51,224.355 166.5,230.5C 170.794,232.816 175.46,234.15 180.5,234.5C 181.209,235.404 182.209,235.737 183.5,235.5C 183.5,229.167 183.5,222.833 183.5,216.5C 183.989,223.063 184.656,227.73 185.5,230.5C 186.552,230.649 187.552,230.483 188.5,230C 185.007,228.912 184.841,227.745 188,226.5C 190.048,229.813 191.048,233.479 191,237.5C 191.172,230.987 191.672,224.653 192.5,218.5C 191.874,225.584 192.541,232.25 194.5,238.5C 200.769,239.604 207.103,240.271 213.5,240.5C 213.5,234.167 213.5,227.833 213.5,221.5C 214.328,227.653 214.828,233.987 215,240.5C 216.284,239.428 216.617,238.095 216,236.5C 218.55,236.955 221.384,237.289 224.5,237.5C 224.5,239.167 224.5,240.833 224.5,242.5C 229.363,242.819 234.03,242.486 238.5,241.5C 240.5,241.5 242.5,241.5 244.5,241.5C 244.5,235.167 244.5,228.833 244.5,222.5C 245.328,228.319 245.828,234.319 246,240.5C 247.152,236.573 249.152,235.906 252,238.5C 252.308,237.692 252.808,237.025 253.5,236.5C 254.172,237.949 254.839,239.282 255.5,240.5C 257.415,240.784 259.081,240.451 260.5,239.5C 264.739,238.465 269.072,237.799 273.5,237.5C 274.833,237.5 276.167,237.5 277.5,237.5C 278.093,234.5 278.926,231.5 280,228.5C 280.667,229.167 281.333,229.833 282,230.5C 282.741,229.359 283.575,229.359 284.5,230.5C 285.167,225.349 285.834,220.349 286.5,215.5C 286.171,221.537 286.504,227.537 287.5,233.5C 288.107,233.376 288.44,233.043 288.5,232.5C 293.236,231.365 297.903,230.032 302.5,228.5C 303.165,225.686 303.498,222.686 303.5,219.5C 303.483,216.087 302.816,213.087 301.5,210.5C 302.209,209.596 303.209,209.263 304.5,209.5C 304.334,213.846 304.501,218.179 305,222.5C 305.667,221.167 306.333,219.833 307,218.5C 307.667,221.167 308.333,221.167 309,218.5C 309.667,219.833 310.333,221.167 311,222.5C 311.173,216.984 311.673,211.651 312.5,206.5C 312.178,212.358 312.511,218.025 313.5,223.5C 315.713,222.227 318.046,221.227 320.5,220.5C 322.877,220.784 325.044,220.784 327,220.5C 327.495,222.473 327.662,224.473 327.5,226.5C 327.528,231.862 327.194,237.195 326.5,242.5C 324.74,247.553 324.073,252.886 324.5,258.5C 324.533,262.869 324.2,267.202 323.5,271.5C 322.521,272.765 321.521,274.099 320.5,275.5C 319.808,274.975 319.308,274.308 319,273.5C 316.482,275.464 313.816,276.13 311,275.5C 310.503,272.854 310.336,270.187 310.5,267.5C 310.998,262.848 311.331,258.181 311.5,253.5C 311.5,251.833 311.5,250.167 311.5,248.5C 286.152,258.248 259.819,262.914 232.5,262.5C 206.853,262.554 182.186,257.888 158.5,248.5C 158.44,247.957 158.107,247.624 157.5,247.5C 156.526,249.743 156.192,252.076 156.5,254.5C 156.657,255.873 156.49,257.207 156,258.5C 155.667,257.833 155.333,257.167 155,256.5C 153.093,256.421 151.093,256.754 149,257.5C 147.867,255.789 146.367,255.289 144.5,256C 145.167,256.333 145.833,256.667 146.5,257C 145.207,257.49 143.873,257.657 142.5,257.5C 142.562,252.924 141.895,248.591 140.5,244.5C 139.057,231.85 137.723,219.183 136.5,206.5C 137.919,204.849 139.253,203.016 140.5,201C 142.352,200.227 143.686,200.727 144.5,202.5 Z"/></g>
<g><path style="opacity:1" fill="#bb5d65" d="M 273.5,218.5 C 274.568,217.566 275.901,217.232 277.5,217.5C 277.5,224.167 277.5,230.833 277.5,237.5C 276.167,237.5 274.833,237.5 273.5,237.5C 274.209,236.596 275.209,236.263 276.5,236.5C 276.5,230.5 276.5,224.5 276.5,218.5C 275.5,218.5 274.5,218.5 273.5,218.5 Z"/></g>
<g><path style="opacity:1" fill="#e9cdd1" d="M 243.5,222.5 C 243.833,222.5 244.167,222.5 244.5,222.5C 244.5,228.833 244.5,235.167 244.5,241.5C 242.5,241.5 240.5,241.5 238.5,241.5C 238.167,241.5 237.833,241.5 237.5,241.5C 239.265,240.539 241.265,240.205 243.5,240.5C 243.5,234.5 243.5,228.5 243.5,222.5 Z"/></g>
<g><path style="opacity:1" fill="#fdfcfc" d="M 225.5,222.5 C 231.5,222.5 237.5,222.5 243.5,222.5C 243.5,228.5 243.5,234.5 243.5,240.5C 241.265,240.205 239.265,240.539 237.5,241.5C 233.5,241.5 229.5,241.5 225.5,241.5C 225.5,235.167 225.5,228.833 225.5,222.5 Z"/></g>
<g><path style="opacity:1" fill="#fcf7f8" d="M 195.5,219.5 C 201.479,220.331 207.479,220.997 213.5,221.5C 213.5,227.833 213.5,234.167 213.5,240.5C 207.103,240.271 200.769,239.604 194.5,238.5C 193.873,235.25 193.539,231.917 193.5,228.5C 193.517,225.087 194.184,222.087 195.5,219.5 Z"/></g>
<g><path style="opacity:1" fill="#e0b9bd" d="M 192.5,218.5 C 193.791,218.263 194.791,218.596 195.5,219.5C 194.184,222.087 193.517,225.087 193.5,228.5C 193.539,231.917 193.873,235.25 194.5,238.5C 192.541,232.25 191.874,225.584 192.5,218.5 Z"/></g>
<g><path style="opacity:1" fill="#fcfafa" d="M 273.5,218.5 C 274.5,218.5 275.5,218.5 276.5,218.5C 276.5,224.5 276.5,230.5 276.5,236.5C 275.209,236.263 274.209,236.596 273.5,237.5C 269.072,237.799 264.739,238.465 260.5,239.5C 259.167,239.5 257.833,239.5 256.5,239.5C 256.5,233.5 256.5,227.5 256.5,221.5C 261.971,220.101 267.638,219.101 273.5,218.5 Z"/></g>
<g><path style="opacity:1" fill="#d49ba2" d="M 182.5,216.5 C 182.833,216.5 183.167,216.5 183.5,216.5C 183.5,222.833 183.5,229.167 183.5,235.5C 182.209,235.737 181.209,235.404 180.5,234.5C 182.453,228.926 183.12,222.926 182.5,216.5 Z"/></g>
<g><path style="opacity:1" fill="#efdadc" d="M 297.5,211.5 C 294.665,213.785 291.332,215.118 287.5,215.5C 287.178,221.358 287.511,227.025 288.5,232.5C 288.44,233.043 288.107,233.376 287.5,233.5C 286.504,227.537 286.171,221.537 286.5,215.5C 289.939,213.796 293.605,212.462 297.5,211.5 Z"/></g>
<g><path style="opacity:1" fill="#cf9299" d="M 165.5,211.5 C 166.791,211.263 167.791,211.596 168.5,212.5C 166.547,218.074 165.88,224.074 166.5,230.5C 165.51,224.355 165.177,218.022 165.5,211.5 Z"/></g>
<g><path style="opacity:1" fill="#bf696f" d="M 173.5,213.5 C 176.152,213.41 178.485,214.076 180.5,215.5C 177.848,215.59 175.515,214.924 173.5,213.5 Z"/></g>
<g><path style="opacity:1" fill="#fdfafa" d="M 168.5,212.5 C 170.216,212.629 171.883,212.962 173.5,213.5C 175.515,214.924 177.848,215.59 180.5,215.5C 181.492,215.328 182.158,215.662 182.5,216.5C 183.12,222.926 182.453,228.926 180.5,234.5C 175.46,234.15 170.794,232.816 166.5,230.5C 165.88,224.074 166.547,218.074 168.5,212.5 Z"/></g>
<g><path style="opacity:1" fill="#e1bcc1" d="M 298.5,211.5 C 299.209,210.596 300.209,210.263 301.5,210.5C 302.816,213.087 303.483,216.087 303.5,219.5C 303.498,222.686 303.165,225.686 302.5,228.5C 302.5,222.833 302.5,217.167 302.5,211.5C 301.167,211.5 299.833,211.5 298.5,211.5 Z"/></g>
<g><path style="opacity:1" fill="#fefdfd" d="M 297.5,211.5 C 297.833,211.5 298.167,211.5 298.5,211.5C 299.833,211.5 301.167,211.5 302.5,211.5C 302.5,217.167 302.5,222.833 302.5,228.5C 297.903,230.032 293.236,231.365 288.5,232.5C 287.511,227.025 287.178,221.358 287.5,215.5C 291.332,215.118 294.665,213.785 297.5,211.5 Z"/></g>
<g><path style="opacity:1" fill="#e3c0c4" d="M 155.5,207.5 C 155.833,207.5 156.167,207.5 156.5,207.5C 156.83,213.868 156.496,220.202 155.5,226.5C 154.893,226.376 154.56,226.043 154.5,225.5C 155.49,219.69 155.823,213.69 155.5,207.5 Z"/></g>
<g><path style="opacity:1" fill="#c6787f" d="M 256.5,221.5 C 256.5,227.5 256.5,233.5 256.5,239.5C 257.833,239.5 259.167,239.5 260.5,239.5C 259.081,240.451 257.415,240.784 255.5,240.5C 255.177,233.978 255.51,227.645 256.5,221.5 Z"/></g>
<g><path style="opacity:1" fill="#c8797f" d="M 225.5,222.5 C 225.5,228.833 225.5,235.167 225.5,241.5C 229.5,241.5 233.5,241.5 237.5,241.5C 237.833,241.5 238.167,241.5 238.5,241.5C 234.03,242.486 229.363,242.819 224.5,242.5C 224.5,240.833 224.5,239.167 224.5,237.5C 224.179,232.305 224.513,227.305 225.5,222.5 Z"/></g>
<g><path style="opacity:1" fill="#fefdfc" d="M 158.5,248.5 C 182.186,257.888 206.853,262.554 232.5,262.5C 259.819,262.914 286.152,258.248 311.5,248.5C 311.5,250.167 311.5,251.833 311.5,253.5C 310.028,257.919 309.362,262.586 309.5,267.5C 308.725,272.797 308.392,278.13 308.5,283.5C 307.028,287.919 306.362,292.586 306.5,297.5C 306.5,299.167 306.5,300.833 306.5,302.5C 305.028,306.919 304.362,311.586 304.5,316.5C 303.74,325.188 302.74,333.855 301.5,342.5C 293.382,345.613 285.049,347.946 276.5,349.5C 272.64,349.808 268.974,350.475 265.5,351.5C 236.867,355.299 208.534,353.799 180.5,347C 175.683,345.234 171.017,343.401 166.5,341.5C 166.698,336.25 166.031,331.25 164.5,326.5C 164.5,324.833 164.5,323.167 164.5,321.5C 164.556,316.269 163.889,311.269 162.5,306.5C 162.024,299.005 161.358,291.671 160.5,284.5C 160.419,276.772 159.752,269.105 158.5,261.5C 158.034,256.971 158.034,252.637 158.5,248.5 Z"/></g>
<g><path style="opacity:0.706" fill="#c66f75" d="M 326.5,242.5 C 326.125,248.009 325.458,253.342 324.5,258.5C 324.073,252.886 324.74,247.553 326.5,242.5 Z"/></g>
<g><path style="opacity:0.561" fill="#c46a71" d="M 140.5,244.5 C 141.895,248.591 142.562,252.924 142.5,257.5C 142.5,258.833 142.5,260.167 142.5,261.5C 141.383,256.027 140.717,250.36 140.5,244.5 Z"/></g>
<g><path style="opacity:1" fill="#cc7b81" d="M 158.5,248.5 C 158.034,252.637 158.034,256.971 158.5,261.5C 157.833,259.167 157.167,256.833 156.5,254.5C 156.192,252.076 156.526,249.743 157.5,247.5C 158.107,247.624 158.44,247.957 158.5,248.5 Z"/></g>
<g><path style="opacity:1" fill="#d6969b" d="M 311.5,253.5 C 311.331,258.181 310.998,262.848 310.5,267.5C 310.167,267.5 309.833,267.5 309.5,267.5C 309.362,262.586 310.028,257.919 311.5,253.5 Z"/></g>
<g><path style="opacity:1" fill="#f0985e" d="M 243.5,294.5 C 253.833,295.167 264.167,295.833 274.5,296.5C 266.545,301.948 258.712,307.615 251,313.5C 250.333,315.167 250.333,316.833 251,318.5C 253.007,323.02 254.507,327.687 255.5,332.5C 255.647,335.443 256.313,338.276 257.5,341C 257.43,341.765 257.097,342.265 256.5,342.5C 248.368,337.926 240.701,332.592 233.5,326.5C 224.99,332.255 216.657,338.255 208.5,344.5C 209.568,334.429 212.234,324.596 216.5,315C 208.643,308.58 200.643,302.414 192.5,296.5C 202.833,295.833 213.167,295.167 223.5,294.5C 225.79,284.463 228.957,274.796 233,265.5C 237.186,274.89 240.686,284.556 243.5,294.5 Z"/></g>
<g><path style="opacity:1" fill="#b83c43" d="M 156.5,254.5 C 157.167,256.833 157.833,259.167 158.5,261.5C 159.752,269.105 160.419,276.772 160.5,284.5C 160.665,287.85 160.498,291.183 160,294.5C 159,291.833 158,291.833 157,294.5C 154.279,292.686 151.446,292.019 148.5,292.5C 147.749,293.376 147.249,294.376 147,295.5C 146.295,291.335 145.461,287.335 144.5,283.5C 143.321,276.223 142.655,268.89 142.5,261.5C 142.5,260.167 142.5,258.833 142.5,257.5C 143.873,257.657 145.207,257.49 146.5,257C 145.833,256.667 145.167,256.333 144.5,256C 146.367,255.289 147.867,255.789 149,257.5C 151.093,256.754 153.093,256.421 155,256.5C 155.333,257.167 155.667,257.833 156,258.5C 156.49,257.207 156.657,255.873 156.5,254.5 Z"/></g>
<g><path style="opacity:1" fill="#f6caab" d="M 223.5,294.5 C 213.167,295.167 202.833,295.833 192.5,296.5C 191.957,296.44 191.624,296.107 191.5,295.5C 202.146,294.501 212.813,294.168 223.5,294.5 Z"/></g>
<g><path style="opacity:1" fill="#f7cdaf" d="M 243.5,294.5 C 254.187,294.168 264.854,294.501 275.5,295.5C 275.376,296.107 275.043,296.44 274.5,296.5C 264.167,295.833 253.833,295.167 243.5,294.5 Z"/></g>
<g><path style="opacity:1" fill="#d89095" d="M 308.5,283.5 C 308.638,288.414 307.972,293.081 306.5,297.5C 306.362,292.586 307.028,287.919 308.5,283.5 Z"/></g>
<g><path style="opacity:1" fill="#c0434a" d="M 309.5,267.5 C 309.833,267.5 310.167,267.5 310.5,267.5C 310.336,270.187 310.503,272.854 311,275.5C 313.816,276.13 316.482,275.464 319,273.5C 319.308,274.308 319.808,274.975 320.5,275.5C 321.521,274.099 322.521,272.765 323.5,271.5C 322.287,285.182 320.953,298.849 319.5,312.5C 318.097,315.909 317.43,319.575 317.5,323.5C 315.854,323.458 314.188,323.458 312.5,323.5C 311.808,324.025 311.308,324.692 311,325.5C 306.387,324.369 304.553,321.369 305.5,316.5C 305.998,311.848 306.331,307.181 306.5,302.5C 306.5,300.833 306.5,299.167 306.5,297.5C 307.972,293.081 308.638,288.414 308.5,283.5C 308.392,278.13 308.725,272.797 309.5,267.5 Z"/></g>
<g><path style="opacity:1" fill="#de989d" d="M 306.5,302.5 C 306.331,307.181 305.998,311.848 305.5,316.5C 305.167,316.5 304.833,316.5 304.5,316.5C 304.362,311.586 305.028,306.919 306.5,302.5 Z"/></g>
<g><path style="opacity:1" fill="#c4474d" d="M 144.5,283.5 C 145.461,287.335 146.295,291.335 147,295.5C 147.249,294.376 147.749,293.376 148.5,292.5C 151.446,292.019 154.279,292.686 157,294.5C 158,291.833 159,291.833 160,294.5C 160.498,291.183 160.665,287.85 160.5,284.5C 161.358,291.671 162.024,299.005 162.5,306.5C 162.751,311.507 163.084,316.507 163.5,321.5C 163.664,324.187 163.497,326.854 163,329.5C 160.467,326.136 157.634,325.803 154.5,328.5C 151.937,328.263 151.937,327.763 154.5,327C 152.505,326.387 150.838,326.887 149.5,328.5C 149.562,323.924 148.895,319.591 147.5,315.5C 146.141,304.887 145.141,294.221 144.5,283.5 Z"/></g>
<g><path style="opacity:1" fill="#de9a9f" d="M 162.5,306.5 C 163.889,311.269 164.556,316.269 164.5,321.5C 164.167,321.5 163.833,321.5 163.5,321.5C 163.084,316.507 162.751,311.507 162.5,306.5 Z"/></g>
<g><path style="opacity:0.875" fill="#d57a80" d="M 319.5,312.5 C 319.283,318.36 318.617,324.027 317.5,329.5C 317.5,327.5 317.5,325.5 317.5,323.5C 317.43,319.575 318.097,315.909 319.5,312.5 Z"/></g>
<g><path style="opacity:0.796" fill="#d67c82" d="M 147.5,315.5 C 148.895,319.591 149.562,323.924 149.5,328.5C 149.5,330.167 149.5,331.833 149.5,333.5C 148.423,327.688 147.757,321.688 147.5,315.5 Z"/></g>
<g><path style="opacity:0.796" fill="#da8187" d="M 317.5,334.5 C 317.259,339.694 316.593,344.694 315.5,349.5C 315.096,344.217 315.762,339.217 317.5,334.5 Z"/></g>
<g><path style="opacity:1" fill="#d04f56" d="M 304.5,316.5 C 304.833,316.5 305.167,316.5 305.5,316.5C 304.553,321.369 306.387,324.369 311,325.5C 311.308,324.692 311.808,324.025 312.5,323.5C 314.188,323.458 315.854,323.458 317.5,323.5C 317.5,325.5 317.5,327.5 317.5,329.5C 317.5,331.167 317.5,332.833 317.5,334.5C 315.762,339.217 315.096,344.217 315.5,349.5C 315.5,350.833 315.5,352.167 315.5,353.5C 314.097,356.909 313.43,360.575 313.5,364.5C 312.679,367.641 312.179,370.975 312,374.5C 311.83,372.285 311.163,370.285 310,368.5C 309,369.833 308,369.833 307,368.5C 306.072,370.335 304.906,370.668 303.5,369.5C 302.833,366.023 302.166,362.689 301.5,359.5C 295.626,361.568 289.626,363.235 283.5,364.5C 283.167,364.5 282.833,364.5 282.5,364.5C 279.711,364.467 276.877,364.133 274,363.5C 273.383,364.449 273.549,365.282 274.5,366C 272.191,366.006 270.025,366.172 268,366.5C 266.632,365.297 265.132,364.297 263.5,363.5C 261.298,364.78 259.132,364.78 257,363.5C 255.414,364.376 253.914,365.376 252.5,366.5C 250.576,363.321 248.41,362.987 246,365.5C 242.179,364.598 238.179,364.598 234,365.5C 233.667,364.833 233.333,364.167 233,363.5C 232.581,364.672 231.915,365.672 231,366.5C 228.137,365.398 225.304,364.398 222.5,363.5C 220.016,364.773 217.516,364.773 215,363.5C 213.527,363.903 212.194,364.57 211,365.5C 210.612,364.572 209.945,363.905 209,363.5C 207.594,364.414 206.094,365.08 204.5,365.5C 204.189,364.522 203.522,363.855 202.5,363.5C 201.77,364.934 200.77,366.1 199.5,367C 199.833,367.333 200.167,367.667 200.5,368C 197.843,368.175 195.176,368.008 192.5,367.5C 192.649,366.448 192.483,365.448 192,364.5C 191.667,364.833 191.333,365.167 191,365.5C 190.612,364.572 189.945,363.905 189,363.5C 186.041,363.77 182.874,364.103 179.5,364.5C 177.708,364.634 176.042,364.301 174.5,363.5C 172.485,362.076 170.152,361.41 167.5,361.5C 167.167,361.5 166.833,361.5 166.5,361.5C 166.44,360.957 166.107,360.624 165.5,360.5C 164.516,363.428 164.183,366.428 164.5,369.5C 164.167,373.5 163.833,373.5 163.5,369.5C 159.665,368.155 155.999,367.155 152.5,366.5C 151.134,355.535 150.134,344.535 149.5,333.5C 149.5,331.833 149.5,330.167 149.5,328.5C 150.838,326.887 152.505,326.387 154.5,327C 151.937,327.763 151.937,328.263 154.5,328.5C 157.634,325.803 160.467,326.136 163,329.5C 163.497,326.854 163.664,324.187 163.5,321.5C 163.833,321.5 164.167,321.5 164.5,321.5C 164.5,323.167 164.5,324.833 164.5,326.5C 164.444,331.731 165.111,336.731 166.5,341.5C 171.017,343.401 175.683,345.234 180.5,347C 208.534,353.799 236.867,355.299 265.5,351.5C 269.489,351.884 273.155,351.217 276.5,349.5C 285.049,347.946 293.382,345.613 301.5,342.5C 302.74,333.855 303.74,325.188 304.5,316.5 Z"/></g>
<g><path style="opacity:1" fill="#f5b991" d="M 255.5,332.5 C 257.773,336.293 258.773,340.293 258.5,344.5C 257.478,344.145 256.811,343.478 256.5,342.5C 257.097,342.265 257.43,341.765 257.5,341C 256.313,338.276 255.647,335.443 255.5,332.5 Z"/></g>
<g><path style="opacity:1" fill="#e8b1b5" d="M 164.5,326.5 C 166.031,331.25 166.698,336.25 166.5,341.5C 165.111,336.731 164.444,331.731 164.5,326.5 Z"/></g>
<g><path style="opacity:1" fill="#e08a8f" d="M 276.5,349.5 C 273.155,351.217 269.489,351.884 265.5,351.5C 268.974,350.475 272.64,349.808 276.5,349.5 Z"/></g>
<g><path style="opacity:0.959" fill="#de7f84" d="M 315.5,353.5 C 315.332,359.034 314.665,364.367 313.5,369.5C 313.5,367.833 313.5,366.167 313.5,364.5C 313.43,360.575 314.097,356.909 315.5,353.5 Z"/></g>
<g><path style="opacity:1" fill="#fdf9f9" d="M 301.5,359.5 C 301.522,366.016 300.522,372.349 298.5,378.5C 295.218,380.037 291.884,381.37 288.5,382.5C 286.883,383.038 285.216,383.371 283.5,383.5C 283.5,377.167 283.5,370.833 283.5,364.5C 289.626,363.235 295.626,361.568 301.5,359.5 Z"/></g>
<g><path style="opacity:1" fill="#df8186" d="M 167.5,361.5 C 170.152,361.41 172.485,362.076 174.5,363.5C 171.848,363.59 169.515,362.924 167.5,361.5 Z"/></g>
<g><path style="opacity:1" fill="#fdf9f9" d="M 166.5,361.5 C 166.833,361.5 167.167,361.5 167.5,361.5C 169.515,362.924 171.848,363.59 174.5,363.5C 176.042,364.301 177.708,364.634 179.5,364.5C 180.209,365.404 181.209,365.737 182.5,365.5C 183.126,372.584 182.459,379.25 180.5,385.5C 176.059,384.576 171.725,383.242 167.5,381.5C 166.614,377.524 165.948,373.524 165.5,369.5C 165.194,366.615 165.527,363.948 166.5,361.5 Z"/></g>
<g><path style="opacity:1" fill="#efc2c5" d="M 182.5,365.5 C 183.491,372.313 183.825,379.313 183.5,386.5C 182.209,386.737 181.209,386.404 180.5,385.5C 182.459,379.25 183.126,372.584 182.5,365.5 Z"/></g>
<g><path style="opacity:1" fill="#e49499" d="M 166.5,361.5 C 165.527,363.948 165.194,366.615 165.5,369.5C 165.167,369.5 164.833,369.5 164.5,369.5C 164.183,366.428 164.516,363.428 165.5,360.5C 166.107,360.624 166.44,360.957 166.5,361.5 Z"/></g>
<g><path style="opacity:0.999" fill="#dd5c62" d="M 301.5,359.5 C 302.166,362.689 302.833,366.023 303.5,369.5C 304.906,370.668 306.072,370.335 307,368.5C 308,369.833 309,369.833 310,368.5C 311.163,370.285 311.83,372.285 312,374.5C 312.179,370.975 312.679,367.641 313.5,364.5C 313.5,366.167 313.5,367.833 313.5,369.5C 313.214,382.974 306.548,391.808 293.5,396C 251.582,411.702 209.915,411.035 168.5,394C 163.748,391.252 159.581,387.752 156,383.5C 153.618,378.09 152.451,372.424 152.5,366.5C 155.999,367.155 159.665,368.155 163.5,369.5C 163.833,373.5 164.167,373.5 164.5,369.5C 164.833,369.5 165.167,369.5 165.5,369.5C 165.948,373.524 166.614,377.524 167.5,381.5C 171.725,383.242 176.059,384.576 180.5,385.5C 181.209,386.404 182.209,386.737 183.5,386.5C 183.825,379.313 183.491,372.313 182.5,365.5C 181.209,365.737 180.209,365.404 179.5,364.5C 182.874,364.103 186.041,363.77 189,363.5C 189.945,363.905 190.612,364.572 191,365.5C 191.333,365.167 191.667,364.833 192,364.5C 192.483,365.448 192.649,366.448 192.5,367.5C 195.176,368.008 197.843,368.175 200.5,368C 200.167,367.667 199.833,367.333 199.5,367C 200.77,366.1 201.77,364.934 202.5,363.5C 203.522,363.855 204.189,364.522 204.5,365.5C 204.062,365.435 203.728,365.601 203.5,366C 207.512,367.803 207.178,368.803 202.5,369C 204.708,369.191 206.708,369.691 208.5,370.5C 207.5,370.5 206.5,370.5 205.5,370.5C 202.167,370.167 198.833,369.833 195.5,369.5C 194.791,368.596 193.791,368.263 192.5,368.5C 192.5,375.5 192.5,382.5 192.5,389.5C 193.833,389.5 195.167,389.5 196.5,389.5C 201.25,391.031 206.25,391.698 211.5,391.5C 212.491,385.021 212.824,378.354 212.5,371.5C 213.328,377.987 213.828,384.654 214,391.5C 214.419,390.328 215.085,389.328 216,388.5C 217.113,389.711 218.28,389.711 219.5,388.5C 220.971,389.381 221.804,390.714 222,392.5C 222.172,385.654 222.672,378.987 223.5,372.5C 223.5,379.5 223.5,386.5 223.5,393.5C 228.695,393.821 233.695,393.487 238.5,392.5C 239.833,392.5 241.167,392.5 242.5,392.5C 242.5,385.833 242.5,379.167 242.5,372.5C 243.328,378.987 243.828,385.654 244,392.5C 244.333,391.167 244.667,389.833 245,388.5C 246.938,389.86 248.604,389.527 250,387.5C 250.915,388.328 251.581,389.328 252,390.5C 252.333,390.167 252.667,389.833 253,389.5C 253.172,382.987 253.672,376.653 254.5,370.5C 254.5,377.167 254.5,383.833 254.5,390.5C 260.853,389.608 267.186,388.608 273.5,387.5C 274.434,386.432 274.768,385.099 274.5,383.5C 274.977,385.99 276.311,387.99 278.5,389.5C 282.769,388.565 286.936,388.565 291,389.5C 291.5,389 292,388.5 292.5,388C 291.167,387.667 289.833,387.333 288.5,387C 289.791,385.708 289.791,384.542 288.5,383.5C 288.5,383.167 288.5,382.833 288.5,382.5C 291.884,381.37 295.218,380.037 298.5,378.5C 300.522,372.349 301.522,366.016 301.5,359.5 Z"/></g>
<g><path style="opacity:1" fill="#e28388" d="M 282.5,364.5 C 282.833,364.5 283.167,364.5 283.5,364.5C 283.5,370.833 283.5,377.167 283.5,383.5C 285.216,383.371 286.883,383.038 288.5,382.5C 288.5,382.833 288.5,383.167 288.5,383.5C 286.621,384.341 284.621,384.675 282.5,384.5C 282.5,377.833 282.5,371.167 282.5,364.5 Z"/></g>
<g><path style="opacity:1" fill="#f4d2d5" d="M 205.5,370.5 C 206.5,370.5 207.5,370.5 208.5,370.5C 210.099,370.232 211.432,370.566 212.5,371.5C 212.824,378.354 212.491,385.021 211.5,391.5C 211.5,384.833 211.5,378.167 211.5,371.5C 209.265,371.795 207.265,371.461 205.5,370.5 Z"/></g>
<g><path style="opacity:1" fill="#f3d1d3" d="M 195.5,369.5 C 193.544,375.412 192.877,381.745 193.5,388.5C 194.791,388.263 195.791,388.596 196.5,389.5C 195.167,389.5 193.833,389.5 192.5,389.5C 192.5,382.5 192.5,375.5 192.5,368.5C 193.791,368.263 194.791,368.596 195.5,369.5 Z"/></g>
<g><path style="opacity:1" fill="#fefcfc" d="M 195.5,369.5 C 198.833,369.833 202.167,370.167 205.5,370.5C 207.265,371.461 209.265,371.795 211.5,371.5C 211.5,378.167 211.5,384.833 211.5,391.5C 206.25,391.698 201.25,391.031 196.5,389.5C 195.791,388.596 194.791,388.263 193.5,388.5C 192.877,381.745 193.544,375.412 195.5,369.5 Z"/></g>
<g><path style="opacity:1" fill="#fefbfb" d="M 269.5,368.5 C 270.833,368.5 272.167,368.5 273.5,368.5C 273.5,374.833 273.5,381.167 273.5,387.5C 267.186,388.608 260.853,389.608 254.5,390.5C 254.5,383.833 254.5,377.167 254.5,370.5C 259.484,369.725 264.484,369.058 269.5,368.5 Z"/></g>
<g><path style="opacity:1" fill="#d7535a" d="M 282.5,364.5 C 282.5,371.167 282.5,377.833 282.5,384.5C 284.621,384.675 286.621,384.341 288.5,383.5C 289.791,384.542 289.791,385.708 288.5,387C 289.833,387.333 291.167,387.667 292.5,388C 292,388.5 291.5,389 291,389.5C 286.936,388.565 282.769,388.565 278.5,389.5C 276.311,387.99 274.977,385.99 274.5,383.5C 274.5,378.167 274.5,372.833 274.5,367.5C 272.585,367.216 270.919,367.549 269.5,368.5C 264.484,369.058 259.484,369.725 254.5,370.5C 253.672,376.653 253.172,382.987 253,389.5C 252.667,389.833 252.333,390.167 252,390.5C 251.581,389.328 250.915,388.328 250,387.5C 248.604,389.527 246.938,389.86 245,388.5C 244.667,389.833 244.333,391.167 244,392.5C 243.828,385.654 243.328,378.987 242.5,372.5C 236.5,372.5 230.5,372.5 224.5,372.5C 224.167,372.5 223.833,372.5 223.5,372.5C 222.672,378.987 222.172,385.654 222,392.5C 221.804,390.714 220.971,389.381 219.5,388.5C 218.28,389.711 217.113,389.711 216,388.5C 215.085,389.328 214.419,390.328 214,391.5C 213.828,384.654 213.328,377.987 212.5,371.5C 211.432,370.566 210.099,370.232 208.5,370.5C 206.708,369.691 204.708,369.191 202.5,369C 207.178,368.803 207.512,367.803 203.5,366C 203.728,365.601 204.062,365.435 204.5,365.5C 206.094,365.08 207.594,364.414 209,363.5C 209.945,363.905 210.612,364.572 211,365.5C 212.194,364.57 213.527,363.903 215,363.5C 217.516,364.773 220.016,364.773 222.5,363.5C 225.304,364.398 228.137,365.398 231,366.5C 231.915,365.672 232.581,364.672 233,363.5C 233.333,364.167 233.667,364.833 234,365.5C 238.179,364.598 242.179,364.598 246,365.5C 248.41,362.987 250.576,363.321 252.5,366.5C 253.914,365.376 255.414,364.376 257,363.5C 259.132,364.78 261.298,364.78 263.5,363.5C 265.132,364.297 266.632,365.297 268,366.5C 270.025,366.172 272.191,366.006 274.5,366C 273.549,365.282 273.383,364.449 274,363.5C 276.877,364.133 279.711,364.467 282.5,364.5 Z"/></g>
<g><path style="opacity:1" fill="#fefcfd" d="M 224.5,372.5 C 230.5,372.5 236.5,372.5 242.5,372.5C 242.5,379.167 242.5,385.833 242.5,392.5C 241.167,392.5 239.833,392.5 238.5,392.5C 233.833,392.5 229.167,392.5 224.5,392.5C 224.5,385.833 224.5,379.167 224.5,372.5 Z"/></g>
<g><path style="opacity:1" fill="#eaaaae" d="M 269.5,368.5 C 270.919,367.549 272.585,367.216 274.5,367.5C 274.5,372.833 274.5,378.167 274.5,383.5C 274.768,385.099 274.434,386.432 273.5,387.5C 273.5,381.167 273.5,374.833 273.5,368.5C 272.167,368.5 270.833,368.5 269.5,368.5 Z"/></g>
<g><path style="opacity:1" fill="#e89498" d="M 223.5,372.5 C 223.833,372.5 224.167,372.5 224.5,372.5C 224.5,379.167 224.5,385.833 224.5,392.5C 229.167,392.5 233.833,392.5 238.5,392.5C 233.695,393.487 228.695,393.821 223.5,393.5C 223.5,386.5 223.5,379.5 223.5,372.5 Z"/></g>
</svg>
